<?xml version="1.0" encoding="UTF-8" standalone="no" ?>
<!DOCTYPE svg PUBLIC "-//W3C//DTD SVG 1.1//EN" "http://www.w3.org/Graphics/SVG/1.1/DTD/svg11.dtd">
<svg xmlns="http://www.w3.org/2000/svg" xmlns:xlink="http://www.w3.org/1999/xlink" version="1.1" width="400" height="400" viewBox="0 0 400 400" xml:space="preserve">
<desc>Created with Fabric.js 3.6.2</desc>
<defs>
</defs>
<g transform="matrix(3.13 0 0 3.13 198.36 200)" id="Layer_6"  >
<path style="stroke: rgb(0,0,0); stroke-width: 2; stroke-dasharray: none; stroke-linecap: round; stroke-dashoffset: 0; stroke-linejoin: round; stroke-miterlimit: 4; fill: none; fill-rule: nonzero; opacity: 1;"  transform=" translate(-31.47, -32)" d="M 50.39 17.46 V 46.54 a 4.64 4.64 0 0 1 -4.62 4.63 H 17.18 a 4.64 4.64 0 0 1 -4.62 -4.62 V 17.46 a 4.64 4.64 0 0 1 4.62 -4.63 H 45.77" stroke-linecap="round" />
</g>
<g transform="matrix(3.13 0 0 3.13 257.63 144.16)" id="Layer_6"  >
<circle style="stroke: none; stroke-width: 1; stroke-dasharray: none; stroke-linecap: butt; stroke-dashoffset: 0; stroke-linejoin: miter; stroke-miterlimit: 4; fill: rgb(0,0,0); fill-rule: nonzero; opacity: 1;"  cx="0" cy="0" r="1" />
</g>
<g transform="matrix(3.13 0 0 3.13 221.97 178.13)" id="Layer_6"  >
<circle style="stroke: none; stroke-width: 1; stroke-dasharray: none; stroke-linecap: butt; stroke-dashoffset: 0; stroke-linejoin: miter; stroke-miterlimit: 4; fill: rgb(0,0,0); fill-rule: nonzero; opacity: 1;"  cx="0" cy="0" r="1" />
</g>
<g transform="matrix(3.13 0 0 3.13 182.73 200.03)" id="Layer_6"  >
<path style="stroke: rgb(0,0,0); stroke-width: 2; stroke-dasharray: none; stroke-linecap: round; stroke-dashoffset: 0; stroke-linejoin: round; stroke-miterlimit: 4; fill: none; fill-rule: nonzero; opacity: 1;"  transform=" translate(-26.47, -32.01)" d="M 23.77 20.32 a 3.75 3.75 0 0 0 -3.47 3.74 V 39.94 a 3.77 3.77 0 0 0 3.76 3.76 h 8.59" stroke-linecap="round" />
</g>
<g transform="matrix(3.13 0 0 3.13 205.42 199.99)" id="Layer_6"  >
<path style="stroke: rgb(0,0,0); stroke-width: 2; stroke-dasharray: none; stroke-linecap: round; stroke-dashoffset: 0; stroke-linejoin: round; stroke-miterlimit: 4; fill: none; fill-rule: nonzero; opacity: 1;"  transform=" translate(-33.73, -32)" d="M 32.65 43.7 h 7.29 a 3.77 3.77 0 0 0 3.76 -3.76 V 24.06 a 3.77 3.77 0 0 0 -3.76 -3.76 H 24.06 a 1.37 1.37 0 0 0 -0.29 0" stroke-linecap="round" />
</g>
<g transform="matrix(3.13 0 0 3.13 200 200.04)" id="Layer_6"  >
<path style="stroke: rgb(0,0,0); stroke-width: 2; stroke-dasharray: none; stroke-linecap: round; stroke-dashoffset: 0; stroke-linejoin: round; stroke-miterlimit: 4; fill: none; fill-rule: nonzero; opacity: 1;"  transform=" translate(-32, -32.01)" d="M 34 26.74 A 5.64 5.64 0 1 0 37.64 32" stroke-linecap="round" />
</g>
</svg>